<?xml version="1.0" encoding="UTF-8"?><svg id="Calque_2" xmlns="http://www.w3.org/2000/svg" viewBox="0 0 240.1 277.24"><defs><style>.cls-1{fill:#fff;}</style></defs><g id="Calque_1-2"><path class="cls-1" d="M120.05,23.09l100.05,57.76v115.53l-100.05,57.76L20,196.38V80.86L120.05,23.09m0-23.09L0,69.31V207.93l120.05,69.31,120.05-69.31V69.31L120.05,0h0Z"/><g><polygon class="cls-1" points="92.67 154.42 92.67 122.82 120.05 107.01 147.42 122.82 147.42 154.42 120.05 170.23 92.67 154.42"/><path class="cls-1" d="M120.05,122.02l14.37,8.3v16.6l-14.37,8.3-14.37-8.3v-16.6l14.37-8.3m0-30.02l-40.37,23.31v46.62l40.37,23.31,40.37-23.31v-46.62l-40.37-23.31h0Z"/></g></g></svg>