<?xml version="1.0" encoding="UTF-8"?><svg id="Calque_2" xmlns="http://www.w3.org/2000/svg" viewBox="0 0 390 390"><g id="Calque_2-2"><g><path d="M70.68,294h46.32v-18H58.23c3.74,6.29,7.9,12.3,12.44,18Z"/><path d="M50.36,261H117v-18H43.41c1.96,6.17,4.28,12.18,6.95,18Z"/><path d="M167,351.53c5.89,1.05,11.9,1.77,18,2.15V36.32c-6.1,.38-12.11,1.09-18,2.15V351.53Z"/><path d="M132,340.97c5.83,2.53,11.84,4.71,18,6.53V42.5c-6.16,1.82-12.17,4.01-18,6.53V340.97Z"/><path d="M308.64,182.23c10.04-9.07,16.36-22.17,16.36-36.73,0-26.46-20.86-48.13-47-49.44v-.06h-43v18h40.5c17.37,0,31.5,14.13,31.5,31.5s-14.13,31.5-31.5,31.5h-31.5c-4.97,0-9,4.03-9,9s4.03,9,9,9h40.5c22.33,0,40.5,18.17,40.5,40.5s-18.17,40.5-40.5,40.5h-65V96h-18v198h84.5v-.04c31.56-.8,57-26.71,57-58.46,0-23.65-14.12-44.05-34.36-53.27Z"/><path d="M195,0C87.48,0,0,87.48,0,195s87.48,195,195,195,195-87.48,195-195S302.52,0,195,0Zm0,372c-97.6,0-177-79.4-177-177S97.4,18,195,18s177,79.4,177,177-79.4,177-177,177Z"/><path d="M76.5,146.5c-19.58,0-35.95,13.96-39.69,32.45-.53,2.6-.81,5.29-.81,8.05,0,.9,.04,1.79,.1,2.68,1.39,21.09,18.97,37.82,40.4,37.82s40.5-18.17,40.5-40.5-18.17-40.5-40.5-40.5Zm0,63c-12.41,0-22.5-10.09-22.5-22.5s10.09-22.5,22.5-22.5,22.5,10.09,22.5,22.5-10.09,22.5-22.5,22.5Z"/></g></g></svg>